REM DIRINDEX 1\3,1\4,1\5,1\6,1\2\7,1\2\8,1\2\9,1\10
REM DIRNAME folder01,folder02,folder03,folder04,folder05,folder06,folder07,folder08,folder09,folder10
TITLE ""
FILE "2-30 Level 5-782-792.mp3" MP3
  TRACK 01 AUDIO
    TITLE "0:"
    INDEX 01 00:00:00
  TRACK 02 AUDIO
    TITLE "7:cjc056_2686"
    INDEX 01 00:00:07
  TRACK 03 AUDIO
    TITLE "0:"
    INDEX 01 00:01:26
  TRACK 04 AUDIO
    TITLE "8:cjc056_2687"
    INDEX 01 00:01:36
  TRACK 05 AUDIO
    TITLE "0:"
    INDEX 01 00:02:47
  TRACK 06 AUDIO
    TITLE "9:cjc056_2688"
    INDEX 01 00:02:59
  TRACK 07 AUDIO
    TITLE "0:"
    INDEX 01 00:04:66
  TRACK 08 AUDIO
    TITLE "7:cjc056_2689"
    INDEX 01 00:05:44
  TRACK 09 AUDIO
    TITLE "0:"
    INDEX 01 00:06:53
  TRACK 10 AUDIO
    TITLE "8:cjc056_2690"
    INDEX 01 00:06:67
  TRACK 11 AUDIO
    TITLE "0:"
    INDEX 01 00:08:07
  TRACK 12 AUDIO
    TITLE "9:cjc056_2691"
    INDEX 01 00:08:21
  TRACK 13 AUDIO
    TITLE "0:"
    INDEX 01 00:11:19
  TRACK 14 AUDIO
    TITLE "7:cjc056_2692"
    INDEX 01 00:11:70
  TRACK 15 AUDIO
    TITLE "0:"
    INDEX 01 00:13:04
  TRACK 16 AUDIO
    TITLE "8:cjc056_2693"
    INDEX 01 00:13:20
  TRACK 17 AUDIO
    TITLE "0:"
    INDEX 01 00:14:70
  TRACK 18 AUDIO
    TITLE "9:cjc056_2694"
    INDEX 01 00:15:05
  TRACK 19 AUDIO
    TITLE "0:"
    INDEX 01 00:17:47
  TRACK 20 AUDIO
    TITLE "7:cjc056_2695"
    INDEX 01 00:18:23
  TRACK 21 AUDIO
    TITLE "0:"
    INDEX 01 00:18:74
  TRACK 22 AUDIO
    TITLE "8:cjc056_2696"
    INDEX 01 00:19:28
  TRACK 23 AUDIO
    TITLE "0:"
    INDEX 01 00:20:53
  TRACK 24 AUDIO
    TITLE "9:cjc056_2697"
    INDEX 01 00:20:59
  TRACK 25 AUDIO
    TITLE "0:"
    INDEX 01 00:23:55
  TRACK 26 AUDIO
    TITLE "7:cjc056_2698"
    INDEX 01 00:24:43
  TRACK 27 AUDIO
    TITLE "0:"
    INDEX 01 00:25:54
  TRACK 28 AUDIO
    TITLE "8:cjc056_2699"
    INDEX 01 00:25:64
  TRACK 29 AUDIO
    TITLE "0:"
    INDEX 01 00:27:10
  TRACK 30 AUDIO
    TITLE "9:cjc056_2700"
    INDEX 01 00:27:22
  TRACK 31 AUDIO
    TITLE "0:"
    INDEX 01 00:30:24
  TRACK 32 AUDIO
    TITLE "7:cjc056_2701"
    INDEX 01 00:31:00
  TRACK 33 AUDIO
    TITLE "0:"
    INDEX 01 00:32:23
  TRACK 34 AUDIO
    TITLE "8:cjc056_2702"
    INDEX 01 00:32:41
  TRACK 35 AUDIO
    TITLE "0:"
    INDEX 01 00:34:12
  TRACK 36 AUDIO
    TITLE "9:cjc056_2703"
    INDEX 01 00:34:24
  TRACK 37 AUDIO
    TITLE "0:"
    INDEX 01 00:37:18
  TRACK 38 AUDIO
    TITLE "7:cjc056_2704"
    INDEX 01 00:37:69
  TRACK 39 AUDIO
    TITLE "0:"
    INDEX 01 00:39:17
  TRACK 40 AUDIO
    TITLE "8:cjc056_2705"
    INDEX 01 00:39:33
  TRACK 41 AUDIO
    TITLE "0:"
    INDEX 01 00:40:66
  TRACK 42 AUDIO
    TITLE "9:cjc056_2706"
    INDEX 01 00:41:04
  TRACK 43 AUDIO
    TITLE "0:"
    INDEX 01 00:43:35
  TRACK 44 AUDIO
    TITLE "7:cjc056_2707"
    INDEX 01 00:44:11
  TRACK 45 AUDIO
    TITLE "0:"
    INDEX 01 00:45:06
  TRACK 46 AUDIO
    TITLE "8:cjc056_2708"
    INDEX 01 00:45:20
  TRACK 47 AUDIO
    TITLE "0:"
    INDEX 01 00:46:31
  TRACK 48 AUDIO
    TITLE "9:cjc056_2709"
    INDEX 01 00:46:45
  TRACK 49 AUDIO
    TITLE "0:"
    INDEX 01 00:49:18
  TRACK 50 AUDIO
    TITLE "7:cjc056_2710"
    INDEX 01 00:49:69
  TRACK 51 AUDIO
    TITLE "0:"
    INDEX 01 00:50:68
  TRACK 52 AUDIO
    TITLE "8:cjc056_2711"
    INDEX 01 00:51:09
  TRACK 53 AUDIO
    TITLE "0:"
    INDEX 01 00:52:02
  TRACK 54 AUDIO
    TITLE "9:cjc056_2712"
    INDEX 01 00:52:16
  TRACK 55 AUDIO
    TITLE "0:"
    INDEX 01 00:54:58
  TRACK 56 AUDIO
    TITLE "7:cjc056_2713"
    INDEX 01 00:55:36
  TRACK 57 AUDIO
    TITLE "0:"
    INDEX 01 00:56:33
  TRACK 58 AUDIO
    TITLE "8:cjc056_2714"
    INDEX 01 00:56:51
  TRACK 59 AUDIO
    TITLE "0:"
    INDEX 01 00:57:60
  TRACK 60 AUDIO
    TITLE "9:cjc056_2715"
    INDEX 01 00:58:01
  TRACK 61 AUDIO
    TITLE "0:"
    INDEX 01 01:01:66
  TRACK 62 AUDIO
    TITLE "7:cjc056_2716"
    INDEX 01 01:02:48
  TRACK 63 AUDIO
    TITLE "0:"
    INDEX 01 01:03:47
  TRACK 64 AUDIO
    TITLE "8:cjc056_2717"
    INDEX 01 01:03:63
  TRACK 65 AUDIO
    TITLE "0:"
    INDEX 01 01:05:09
  TRACK 66 AUDIO
    TITLE "9:cjc056_2718"
    INDEX 01 01:05:22
  TRACK 67 AUDIO
    TITLE "0:"
    INDEX 01 01:08:64
